<svg preserveAspectRatio="none" width="100%" height="100%" overflow="visible" style="display: block;" viewBox="0 0 34 34" fill="none" xmlns="http://www.w3.org/2000/svg">
<g id="tiktok 1" clip-path="url(#clip0_0_33)">
<path id="Vector" d="M19.125 0H23.3325C23.6385 1.51938 24.48 3.43613 25.9569 5.338C27.4019 7.20163 29.3186 8.5 31.875 8.5V12.75C28.1499 12.75 25.3512 11.0203 23.375 8.86338V23.375C23.375 25.4764 22.7519 27.5307 21.5844 29.2779C20.4169 31.0252 18.7575 32.387 16.816 33.1912C14.8745 33.9954 12.7382 34.2058 10.6772 33.7958C8.61612 33.3859 6.72292 32.3739 5.23699 30.888C3.75106 29.4021 2.73912 27.5089 2.32916 25.4478C1.91919 23.3868 2.1296 21.2505 2.93378 19.309C3.73796 17.3675 5.09979 15.7081 6.84707 14.5406C8.59434 13.3731 10.6486 12.75 12.75 12.75V17C11.4891 17 10.2566 17.3739 9.20824 18.0744C8.15988 18.7749 7.34278 19.7705 6.86027 20.9354C6.37776 22.1003 6.25151 23.3821 6.49749 24.6187C6.74347 25.8553 7.35063 26.9912 8.24219 27.8828C9.13375 28.7744 10.2697 29.3815 11.5063 29.6275C12.7429 29.8735 14.0247 29.7472 15.1896 29.2647C16.3545 28.7822 17.3501 27.9651 18.0506 26.9168C18.7511 25.8684 19.125 24.6359 19.125 23.375V0Z" fill="var(--fill-0, black)"/>
</g>
<defs>
<clipPath id="clip0_0_33">
<rect width="34" height="34" fill="white"/>
</clipPath>
</defs>
</svg>
