<svg preserveAspectRatio="none" width="100%" height="100%" overflow="visible" style="display: block;" viewBox="0 0 34 34" fill="none" xmlns="http://www.w3.org/2000/svg">
<g id="youtube 1">
<path id="Vector" d="M17.1084 4.24787H17.2975C19.0442 4.25425 27.8949 4.318 30.2812 4.95975C31.0027 5.15561 31.6601 5.53737 32.1877 6.06689C32.7154 6.59641 33.0948 7.25514 33.2881 7.97725C33.5027 8.78475 33.6536 9.85362 33.7556 10.9565L33.7769 11.1775L33.8236 11.73L33.8406 11.951C33.9787 13.8932 33.9957 15.7122 33.9979 16.1096V16.269C33.9957 16.6812 33.9766 18.6235 33.8236 20.6465L33.8066 20.8696L33.7875 21.0906C33.6812 22.3061 33.524 23.5131 33.2881 24.4014C33.0948 25.1235 32.7154 25.7822 32.1877 26.3117C31.6601 26.8413 31.0027 27.223 30.2812 27.4189C27.8162 28.0819 18.4471 28.1286 17.1487 28.1308H16.847C16.1904 28.1308 13.4746 28.118 10.6271 28.0203L10.2659 28.0075L10.081 27.999L9.71762 27.9841L9.35425 27.9692C6.9955 27.8651 4.74937 27.6973 3.7145 27.4168C2.99333 27.2211 2.33612 26.8396 1.80848 26.3105C1.28085 25.7814 0.901262 25.1231 0.707625 24.4014C0.47175 23.5153 0.3145 22.3061 0.20825 21.0906L0.19125 20.8675L0.17425 20.6465C0.0687723 19.2066 0.0106575 17.7637 0 16.32L0 16.0586C0.00425 15.6017 0.02125 14.0229 0.136 12.2804L0.150875 12.0615L0.15725 11.951L0.17425 11.73L0.221 11.1775L0.24225 10.9565C0.34425 9.85362 0.495125 8.78262 0.70975 7.97725C0.903062 7.25514 1.28251 6.59641 1.81016 6.06689C2.33782 5.53737 2.9952 5.15561 3.71662 4.95975C4.7515 4.6835 6.99762 4.5135 9.35637 4.40725L9.71762 4.39237L10.0831 4.37963L10.2659 4.37325L10.6292 4.35838C12.6516 4.29336 14.6748 4.25723 16.6982 4.25L17.1084 4.24787ZM13.6 11.0691V21.3074L22.4336 16.1904L13.6 11.0691Z" fill="var(--fill-0, black)"/>
</g>
</svg>
