<svg preserveAspectRatio="none" width="100%" height="100%" overflow="visible" style="display: block;" viewBox="0 0 16 16" fill="none" xmlns="http://www.w3.org/2000/svg">
<g id="pixelarticons:heart">
<path id="Vector" d="M8.66667 14.6667H7.33333V13.3333H8.66667V14.6667ZM7.33333 13.3333H6V12H7.33333V13.3333ZM10 13.3333H8.66667V12H10V13.3333ZM6 12H4.66667V10.6667H6V12ZM11.3333 12H10V10.6667H11.3333V12ZM4.66667 10.6667H3.33333V9.33333H4.66667V10.6667ZM12.6667 10.6667H11.3333V9.33333H12.6667V10.6667ZM3.33333 9.33333H2V8H3.33333V9.33333ZM14 9.33333H12.6667V8H14V9.33333ZM2 8H0.666667V4H2V8ZM15.3333 8H14V4H15.3333V8ZM8.66667 5.33333H7.33333V4H8.66667V5.33333ZM3.33333 4H2V2.66667H3.33333V4ZM7.33333 4H6V2.66667H7.33333V4ZM10 4H8.66667V2.66667H10V4ZM14 4H12.6667V2.66667H14V4ZM6 2.66667H3.33333V1.33333H6V2.66667ZM12.6667 2.66667H10V1.33333H12.6667V2.66667Z" fill="var(--fill-0, #FF5050)"/>
</g>
</svg>
