<svg preserveAspectRatio="none" width="100%" height="100%" overflow="visible" style="display: block;" viewBox="0 0 90 67" fill="none" xmlns="http://www.w3.org/2000/svg">
<g id="Group">
<path id="Vector" d="M62.9924 7.44444C63.0492 7.53636 62.9841 7.53104 62.7083 7.42165C62.3939 7.29707 62.4583 7.2082 62.822 7.26441C63.1659 7.31682 63.2909 7.36848 63.0765 7.36848C63.0045 7.36848 62.9667 7.40266 62.9924 7.44444ZM74.3485 44.8642C74.3939 44.9827 74.3826 44.9827 74.0341 44.868C73.8985 44.8239 73.7879 44.7601 73.7879 44.7267C73.7879 44.5884 74.2902 44.7115 74.3485 44.8642ZM62.597 31.7452C62.8833 31.9291 62.7295 31.945 62.3485 31.7711C62.1492 31.6807 62.1167 31.6427 62.2182 31.6199C62.2924 31.6024 62.4629 31.6594 62.597 31.7452ZM57.9924 40.7925C57.9667 40.8343 57.922 40.8639 57.8932 40.8578C57.8644 40.8525 57.7644 40.8328 57.6705 40.8145C57.5765 40.7971 57.5 40.7462 57.5 40.7021C57.5 40.6573 57.5735 40.6429 57.6705 40.6687C57.7644 40.6938 57.8856 40.715 57.9402 40.7158C57.9947 40.7158 58.0182 40.7507 57.9924 40.7925ZM75.6568 41.2103C75.6568 41.3448 75.6386 41.344 75.3409 41.2073L75.1136 41.1032L75.3848 41.1002C75.5773 41.0971 75.6568 41.1298 75.6568 41.2103ZM46.1545 46.5916C46.2068 46.6121 46.2159 46.6303 46.1742 46.6303C46.0432 46.6318 45.7576 46.47 45.7576 46.3941C45.7576 46.3546 45.8114 46.3424 45.8773 46.3675C45.9432 46.3933 46.0303 46.4138 46.0712 46.4138C46.1121 46.4138 46.1258 46.445 46.1023 46.483C46.0788 46.5217 46.1023 46.5703 46.1545 46.5916ZM82.7273 12.3152C82.7273 12.3866 82.525 12.3958 82.3667 12.3319C82.3144 12.3107 82.2879 12.2666 82.3083 12.234C82.3561 12.1565 82.7273 12.2279 82.7273 12.3152ZM85.3303 17.8135C85.3545 17.8758 85.3667 17.9244 85.3576 17.9214C85.3485 17.9176 85.2386 17.8682 85.1136 17.8105L84.8864 17.7064L85.0864 17.7033C85.197 17.7011 85.3061 17.7504 85.3303 17.8135ZM60.8333 18.9909C60.8333 19.0327 60.7826 19.0669 60.7197 19.0669C60.6568 19.0669 60.6061 19.0327 60.6061 18.9909C60.6061 18.9491 60.6568 18.915 60.7197 18.915C60.7826 18.915 60.8333 18.9491 60.8333 18.9909ZM81.7803 30.8413C81.7545 30.883 81.7015 30.9172 81.6621 30.9172C81.6227 30.9172 81.5909 30.883 81.5909 30.8413C81.5909 30.7995 81.6439 30.7653 81.7091 30.7653C81.7742 30.7653 81.8061 30.7995 81.7803 30.8413ZM51.1364 43.907C51.1364 43.9488 51.1045 43.983 51.0652 43.983C51.0258 43.983 50.9727 43.9488 50.947 43.907C50.9212 43.8652 50.953 43.8311 51.0182 43.8311C51.0833 43.8311 51.1364 43.8652 51.1364 43.907Z" fill="var(--fill-0, black)"/>
<path id="Vector_2" d="M46.1545 46.5916C46.1205 46.5772 46.0985 46.5513 46.0939 46.524L46.4848 46.7093C46.7386 46.8301 46.9689 46.9866 46.9962 47.0572C47.0992 47.3269 47.0439 47.6376 46.8598 47.823C46.6705 48.0121 46.4167 48.0577 46.2121 47.9377C46.0932 47.8685 44.8129 47.4477 43.9015 47.1788C42.7295 46.8324 41.2371 46.3956 41.0227 46.3356C38.925 45.7507 36.5932 45.0252 36.1659 44.8254C35.6008 44.5603 35.4644 44.3058 35.6689 43.8949L35.7955 43.6412L36.4712 43.6191C37.1061 43.5979 37.8576 43.6867 39.1485 43.9359C39.4614 43.9959 39.7167 44.0126 39.7402 43.9739C39.7909 43.8926 39.7455 43.8744 39.0152 43.6837C38.703 43.6024 38.0886 43.4285 37.6515 43.297C37.2144 43.1664 36.3447 42.9119 35.7197 42.7319C33.9008 42.2077 32.1159 41.6296 31.6826 41.4245C31.1894 41.1906 31.0258 40.9634 31.0848 40.5943C31.1545 40.1635 31.2409 40.1088 31.853 40.1088C32.153 40.1088 32.4182 40.0899 32.4409 40.0663C32.4644 40.0435 32.2697 39.71 32.0083 39.3257C31.2114 38.1528 30.1515 36.2013 30.1515 35.905C30.1515 35.8526 30.1212 35.7766 30.0833 35.7371C29.9947 35.6429 29.5977 34.4617 29.3955 33.6899C28.9492 31.9868 28.7902 30.7494 28.7902 28.9802C28.7902 27.2641 28.8811 26.5037 29.3205 24.5363C29.6864 22.8947 30.6402 20.6948 31.6576 19.1429C33.9871 15.5908 37.3341 12.9807 41.253 11.662C44.4515 10.5848 48.0159 10.4655 51.4773 11.3186C51.8106 11.4006 52.4242 11.5374 52.8409 11.6217C53.2576 11.7068 53.7348 11.8101 53.9015 11.8519C54.0682 11.8936 54.5288 11.9954 54.9242 12.079C55.3197 12.1626 55.8652 12.2811 56.1364 12.3418C56.4076 12.4026 56.6538 12.4543 56.6848 12.455C56.7152 12.4565 56.7902 12.338 56.8515 12.1914C56.9205 12.0266 57.0432 11.8944 57.1742 11.8443C57.3962 11.7592 58.5121 11.8093 59.1939 11.9339C59.5864 12.0061 59.8606 11.9354 59.5424 11.8443C58.9235 11.6673 56.772 10.9752 56.3258 10.8096C55.4652 10.4898 55.1523 9.99607 55.5432 9.57523C55.7045 9.40127 55.7265 9.39899 56.8697 9.43773C57.5098 9.459 58.0477 9.45293 58.0652 9.42406C58.0833 9.39519 57.6818 9.24175 57.1742 9.08298C56.0023 8.71684 55.6258 8.53908 55.4962 8.28764C55.3576 8.01949 55.4288 7.70348 55.672 7.51053C55.8553 7.36392 55.9326 7.35557 56.6288 7.40191C57.0455 7.42925 57.7424 7.50142 58.178 7.56219C59.0136 7.67917 59.3561 7.60929 58.7348 7.44824C58.5348 7.39659 58.2864 7.32594 58.1818 7.291C58.0773 7.25681 57.6174 7.11932 57.1591 6.98562C55.3114 6.44628 54.8864 6.1599 55.0758 5.58333C55.2061 5.18604 55.4455 5.14198 56.7083 5.27796C57.2894 5.34101 57.8379 5.41317 57.9273 5.43748C58.0159 5.46255 58.1106 5.44736 58.1379 5.40406C58.1659 5.35772 58.0508 5.28783 57.8621 5.23694C57.0432 5.01361 56.803 4.81458 56.803 4.35804C56.803 3.83617 56.9212 3.79819 58.5561 3.79819C59.3364 3.79819 59.9977 3.77464 60.0265 3.74653C60.0841 3.6888 59.9871 3.65461 58.3333 3.15325C56.6765 2.65113 55.8227 2.36095 55.6265 2.23485C55.3462 2.0533 55.2159 1.7259 55.3136 1.44483C55.4167 1.14933 55.6235 1.06349 56.2364 1.06273C56.7432 1.06197 59.2083 1.25264 60.1894 1.36887C61.6902 1.54586 63.1765 1.62183 63.3727 1.53219C63.6318 1.41368 63.8341 1.41976 64.3038 1.56029C65.0091 1.76995 65.2083 2.23409 64.7788 2.66481C64.5773 2.86687 64.5106 2.88662 64.0402 2.88662C63.7553 2.88662 63.0455 2.83573 62.4621 2.77344C61.8788 2.71115 61.3523 2.66025 61.2917 2.65949C61.0689 2.65797 61.3371 2.79015 61.8939 2.95651C63.3167 3.38115 64.2227 3.68728 64.4311 3.81186C64.7333 3.99341 64.8652 4.37095 64.7242 4.6505C64.6667 4.76444 64.5538 4.89206 64.4742 4.93536C64.3886 4.98094 63.7417 5.01361 62.922 5.01361C62.1477 5.01361 61.5152 5.04095 61.5152 5.07514C61.5152 5.10932 61.6939 5.18149 61.9129 5.23542C62.1318 5.29011 62.6348 5.4352 63.0303 5.55827C63.4258 5.68133 64.0402 5.87124 64.3939 5.98062C65.4985 6.32094 65.7576 6.50249 65.7576 6.93549C65.7576 7.03728 65.6833 7.21427 65.5932 7.32974C65.4288 7.5394 65.4273 7.5394 64.703 7.49458C64.3038 7.47027 63.7386 7.42697 63.447 7.39963C62.7371 7.33354 62.8614 7.43001 63.9394 7.78324C65.0742 8.15547 65.3349 8.29296 65.4553 8.58542C65.5379 8.78596 65.5348 8.86117 65.4348 9.07083C65.2432 9.47496 64.9909 9.53421 63.9136 9.4309C62.4598 9.29036 62.1833 9.32683 62.9167 9.56155C63.8008 9.84414 64.0015 9.95808 64.1136 10.2399C64.2439 10.5681 64.1614 10.8955 63.9152 11.0277C63.8045 11.0877 63.3765 11.0983 62.5068 11.0641C61.8197 11.0368 61.2894 11.0428 61.3295 11.0778C61.3689 11.112 61.7424 11.235 62.1591 11.3513C62.5758 11.4675 63.0015 11.5905 63.1061 11.6262C63.2106 11.6612 63.8068 11.8488 64.4318 12.0433C66.0962 12.5606 66.2265 12.6062 66.4909 12.7703C66.872 13.0065 66.9174 13.6499 66.5674 13.8383C66.3795 13.9386 65.0727 13.9302 64.4265 13.8239L64.4152 13.8224C64.0167 13.757 63.8629 13.7312 63.8341 13.7806C63.8159 13.811 63.847 13.871 63.897 13.969L63.8992 13.9735C64.0447 14.2546 64.0447 14.3837 63.9015 14.661C63.7091 15.034 63.2386 15.072 61.9697 14.816C61.7826 14.778 61.3045 14.6883 60.9091 14.6177C60.5136 14.5463 60.0614 14.4422 59.9053 14.3852C59.5985 14.2743 58.7879 14.1581 58.7879 14.2257C58.7879 14.2698 58.8848 14.3009 61.25 15.0059C62.5455 15.3925 63.5955 15.8134 63.8447 16.0473C64.2417 16.4196 63.9409 17.1678 63.3939 17.1678C63.1545 17.1678 62.3129 17.0257 61.5909 16.8639C61.4038 16.8214 61.0962 16.7561 60.9091 16.7173C60.722 16.6794 60.3295 16.5943 60.0379 16.5282C59.4333 16.3915 59.2545 16.377 59.3598 16.4743C59.4265 16.5365 59.6818 16.6209 60.9848 17.0128C62.4735 17.461 64.8758 18.2829 65.303 18.4911C65.8811 18.7729 66.1 19.0836 65.9735 19.446C65.8311 19.8562 65.675 19.9268 65.0212 19.8782C64.4992 19.8394 63.0871 19.5781 62.2348 19.3624C61.172 19.0927 61.3227 19.2492 62.5311 19.6678C63.4924 20.0012 63.8955 20.2101 64.0159 20.4358C64.1508 20.688 64.1023 21.0374 63.9053 21.2357C63.6591 21.4818 63.2515 21.481 62.0303 21.2319C60.45 20.9098 60.503 20.9698 62.3606 21.6041C63.7917 22.0933 64.4576 22.3865 64.7538 22.6585C65 22.8848 64.9856 23.314 64.7242 23.5761C64.5447 23.7569 64.4689 23.7766 63.9621 23.7766C63.3894 23.7766 63.2758 23.8716 63.7318 23.9688C64.0955 24.0463 65.9818 24.6829 66.2477 24.8181C66.6508 25.0224 66.7424 25.1455 66.7402 25.4782C66.7386 25.6499 66.6886 25.8543 66.6288 25.9333C66.4818 26.1285 65.9591 26.1703 65.1121 26.054C64.7379 26.0031 64.2955 25.9439 64.1295 25.9226L63.8265 25.8839L64.0818 26.1232C64.3061 26.3328 64.3318 26.3959 64.2939 26.6336C64.2697 26.7825 64.2098 26.9527 64.1614 27.0112C64.0432 27.154 63.5576 27.2793 63.2871 27.2368C63.1667 27.2178 62.5227 27.1646 61.8561 27.119C61.1894 27.0735 60.5462 27.0203 60.4265 27.0013C60.2402 26.9724 60.222 26.9838 60.303 27.0811C60.3545 27.1441 60.4606 27.195 60.5379 27.195C60.6152 27.195 60.9265 27.2755 61.2295 27.3743C61.5326 27.473 62.1379 27.6622 62.5758 27.7951C65.3962 28.6528 66.4841 29.0462 66.5917 29.2483C66.7235 29.4944 66.6795 29.9168 66.5045 30.0923C66.3545 30.2427 66.2917 30.251 65.6144 30.207C64.6871 30.1462 63.5568 29.9836 62.8598 29.812C62.7265 29.7785 62.6515 29.7907 62.6515 29.8446C62.6515 29.8917 62.6939 29.9297 62.7462 29.9297C62.8795 29.9305 64.9106 30.5929 65.2121 30.7349C65.353 30.801 65.5136 30.9605 65.5803 31.1003C65.6879 31.3267 65.6871 31.37 65.5727 31.5918C65.3727 31.9792 65.1795 32.0149 64.0152 31.8751C63.453 31.8075 62.9076 31.7551 62.803 31.7589C62.6303 31.765 62.6371 31.7756 62.8788 31.882C63.0242 31.9458 63.4068 32.078 63.728 32.1744C64.6295 32.4464 64.975 32.6226 65.1068 32.8794C65.2098 33.0792 65.2114 33.1399 65.1174 33.3655C64.922 33.835 64.5629 33.8859 62.8409 33.6907C61.1174 33.4954 60.9576 33.5547 62.2348 33.9163C63.3402 34.2293 65.5318 34.9448 65.7955 35.0793C66.1068 35.2373 66.2068 35.3892 66.2098 35.709C66.2114 35.8967 66.1583 36.0311 66.0371 36.1458C65.822 36.3479 65.2742 36.3623 64.1288 36.196C62.8826 36.0144 62.6636 36.0812 63.6364 36.3464C64.5561 36.5963 64.8515 36.8227 64.8462 37.2739C64.8432 37.561 64.6917 37.7441 64.3833 37.8345C64.1235 37.9105 62.5902 37.8277 61.453 37.6757L61.447 37.675C60.9394 37.6074 60.753 37.5831 60.7303 37.6324C60.7174 37.6613 60.7598 37.7152 60.8265 37.8003L60.828 37.8018C61.0273 38.0563 61.0326 38.4657 60.8386 38.6602C60.6242 38.8752 60.1871 38.9101 58.7515 38.8258C58.0439 38.7848 57.4523 38.7635 57.4371 38.7787C57.422 38.7947 57.5576 38.8486 57.7386 38.9003C58.3083 39.0613 59.572 39.4806 59.8545 39.6029C60.2909 39.7921 60.4568 40.1164 60.3045 40.4841C60.1629 40.8282 59.9417 40.8806 58.872 40.8237C58.347 40.7956 57.9424 40.7994 57.9735 40.8328C58.0341 40.8981 58.8106 41.189 59.4318 41.3797C59.6402 41.4435 59.8788 41.5225 59.9621 41.5552C60.0455 41.5879 60.3348 41.6988 60.6061 41.8021C61.2106 42.033 61.4136 42.2981 61.2795 42.6825C61.2235 42.8443 61.0977 42.975 60.9008 43.076C60.7386 43.1588 60.6061 43.2758 60.6061 43.335C60.6061 43.5622 60.4265 43.8242 60.2083 43.9146C60.0242 43.9913 59.8265 43.986 59.1386 43.8842C58.4424 43.7809 57.075 43.5105 56.3068 43.3229C56.0205 43.253 56.1167 43.3753 56.4735 43.5333C56.8856 43.7164 57.1212 44.0012 57.1212 44.318C57.1212 44.6431 56.9386 44.8794 56.6447 44.9348C56.2576 45.0077 53.3439 44.4798 52.2076 44.1311C51.7 43.9746 51.3265 43.9374 51.3962 44.0498C51.4189 44.0863 51.5144 44.1342 51.6091 44.1554C52.0091 44.2443 52.8333 44.596 53.0735 44.7799C53.2894 44.9447 53.3333 45.0275 53.3333 45.2683C53.3333 45.4461 53.2727 45.6352 53.1765 45.7583C53.0432 45.9284 52.9606 45.958 52.6273 45.958C52.4114 45.958 51.9962 45.9056 51.7045 45.8418C51.4129 45.7773 51.0205 45.6945 50.8333 45.6572C50.0689 45.5061 49.4689 45.3557 49.3273 45.2789C49.1515 45.1847 48.8636 45.1718 48.8636 45.2577C48.8636 45.2903 49.0205 45.364 49.2121 45.4202C49.7295 45.5737 50.1273 45.7833 50.2606 45.9748C50.422 46.2049 50.4091 46.587 50.2333 46.8043C50.103 46.9653 50.0318 46.9828 49.5326 46.9729C49.2273 46.9668 48.4492 46.8673 47.803 46.7526C47.1568 46.6379 46.4924 46.5316 46.3258 46.5171L46.0962 46.4966C46.0977 46.4921 46.1 46.4875 46.1023 46.483C46.1258 46.445 46.1121 46.4138 46.0712 46.4138C46.0303 46.4138 45.9432 46.3933 45.8773 46.3675C45.8114 46.3424 45.7576 46.3546 45.7576 46.3941C45.7576 46.47 46.0432 46.6318 46.1742 46.6303C46.2159 46.6303 46.2068 46.6121 46.1545 46.5916ZM21.525 47.0952C21.0432 47.1833 18.1795 47.2593 17.4621 47.2039C16.4462 47.1249 14.7932 46.818 13.9394 46.5498C10.7386 45.5433 8.41364 44.1478 6.12955 41.8606C4.56288 40.2927 3.58333 38.9337 2.6553 37.0407C1.85076 35.4021 1.42879 34.1351 1.05758 32.2466C0.630303 30.0748 0.678788 27.2968 1.1803 25.144C1.61667 23.273 1.89394 22.4799 2.66818 20.8931C3.97955 18.2085 5.95076 15.8977 8.48485 14.0776C10.1606 12.8743 12.2424 11.8944 14.2424 11.368C17.3273 10.5552 20.5242 10.5483 23.6742 11.3467C24.9682 11.6749 26.6492 12.3654 27.8924 13.0794C28.9152 13.6674 29.697 14.1817 29.697 14.2675C29.697 14.3328 29.4909 14.6245 29.0083 15.2414C27.8174 16.7629 26.6636 18.7805 25.9508 20.5862C25.7939 20.9835 25.6152 21.4316 25.553 21.5821L25.4409 21.857L24.7667 21.3496C23.0568 20.062 21.15 19.4224 19.0152 19.4216C17.2515 19.4209 16.1379 19.6868 14.5682 20.4836C12.4568 21.5547 10.9045 23.3155 9.96667 25.7016C9.19924 27.6546 9.26288 30.6795 10.1121 32.6264C10.5561 33.6443 10.647 33.8046 11.2735 34.6774C12.378 36.2157 14.2114 37.5527 15.9848 38.1133C17.278 38.5227 17.4758 38.5516 18.9773 38.5516C20.4182 38.5516 20.675 38.5182 21.7424 38.1915C22.9159 37.8315 23.8803 37.3271 24.853 36.5651C25.0848 36.3836 25.3258 36.2347 25.3879 36.2347C25.4614 36.2347 25.6129 36.5249 25.8227 37.0703C26.6561 39.2284 27.8318 41.262 29.3015 43.0897C29.5356 43.3814 29.6955 43.6488 29.672 43.7103C29.5955 43.9116 28.2242 44.751 26.9318 45.3883C25.1402 46.2718 23.9023 46.6622 21.525 47.0952ZM74.3485 44.8642C74.2902 44.7115 73.7879 44.5884 73.7879 44.7267C73.7879 44.7601 73.8985 44.8239 74.0341 44.868C74.3742 44.9804 74.3932 44.9827 74.3515 44.8718C74.3523 44.874 74.3538 44.8756 74.3561 44.8778C74.3977 44.9211 74.7803 45.0602 75.2061 45.1863C76.2106 45.4856 76.497 45.6268 76.6333 45.8912C76.7311 46.0804 76.7318 46.1411 76.6364 46.369C76.5765 46.5118 76.45 46.6713 76.3553 46.7222C76.1515 46.8316 75.2136 46.7906 73.5765 46.6015C72.9811 46.5323 72.4439 46.4951 72.3833 46.5187C72.3227 46.5422 72.2727 46.6303 72.2727 46.7154C72.2727 46.8005 72.2045 46.938 72.1212 47.0215C71.925 47.2183 71.6348 47.2069 70.8712 46.9706C70.5379 46.8673 70.0356 46.7162 69.7545 46.6341C69.4735 46.5521 68.9962 46.4108 68.6939 46.3204C67.8053 46.0538 67.4894 45.582 67.9129 45.1566C68.0795 44.9903 68.1629 44.9705 68.6894 44.972C69.0144 44.9728 69.4992 45.0055 69.7674 45.0442C70.0348 45.0829 70.2879 45.0936 70.3288 45.0685C70.3962 45.0267 69.875 44.8269 69.2803 44.6659C68.55 44.4692 67.4227 44.0977 67.1833 43.9754C66.675 43.7164 66.5167 43.2613 66.8212 42.9339C66.9545 42.7904 67.0568 42.7676 67.5598 42.7676C68.0879 42.7676 68.4871 42.8056 69.8705 42.9894C70.3576 43.054 70.5159 42.9734 70.1333 42.8549C69.9977 42.8132 69.5288 42.6711 69.0909 42.5389C67.3508 42.014 66.8909 41.8104 66.75 41.5013C66.6182 41.2096 66.6508 41.028 66.875 40.8183C67.0765 40.63 67.1068 40.6246 67.803 40.6672C68.1985 40.6915 68.753 40.734 69.0341 40.7621C69.5773 40.8168 69.6568 40.7652 69.3939 40.5266C69.3 40.4416 69.2424 40.2927 69.2424 40.1354C69.2424 39.982 69.303 39.8202 69.3939 39.729C69.5311 39.5915 69.6462 39.5771 70.625 39.5779C71.2189 39.5779 71.9932 39.6113 72.3462 39.6523C72.6992 39.6926 73.0159 39.6979 73.05 39.6637C73.0841 39.6295 72.847 39.5247 72.522 39.432C72.1977 39.3386 71.847 39.2345 71.7424 39.1996C71.6379 39.1654 71.297 39.0628 70.9848 38.9724C70.6727 38.8813 70.3318 38.7787 70.2273 38.743C70.1227 38.7081 69.6356 38.5516 69.1432 38.3951C68.047 38.0464 67.7591 37.8277 67.8288 37.3969C67.9091 36.9009 67.9538 36.8865 69.3742 36.9024C70.0727 36.9108 70.8947 36.9548 71.2015 37.0004C71.5629 37.0543 71.7856 37.0574 71.8333 37.0095C71.8811 36.9617 71.3644 36.7566 70.3667 36.4269C68.0341 35.6574 67.6159 35.3983 67.8008 34.837C67.85 34.6858 67.9538 34.5285 68.0311 34.4868C68.203 34.3949 69.0197 34.3911 69.4318 34.4815C69.5985 34.5179 69.9561 34.5665 70.2273 34.5901L70.7197 34.6326L70.3788 34.4754C70.1917 34.3888 69.9614 34.2482 69.8674 34.1616C69.6439 33.9565 69.6394 33.5577 69.8583 33.3382C70.0136 33.1825 70.0682 33.1779 71.4144 33.2113C72.1818 33.2311 72.8227 33.2258 72.8386 33.1999C72.8545 33.1741 72.5545 33.0754 72.1727 32.9796C71.472 32.8057 70.8045 32.6241 70.4545 32.5125C70.35 32.479 70.0697 32.394 69.8311 32.3241C69.1674 32.1273 68.9061 31.9215 68.8773 31.5705C68.8591 31.3517 68.8955 31.2348 69.0235 31.0988C69.2205 30.8876 69.6598 30.861 70.6485 30.9985C71.3992 31.1033 71.5129 30.9978 70.8826 30.7805C70.0917 30.5086 69.8652 30.3969 69.7402 30.2176C69.5864 29.9981 69.5886 29.7056 69.747 29.48C69.8697 29.3038 69.8902 29.3015 70.7038 29.3478C71.1614 29.3744 71.6417 29.4291 71.772 29.4701C72.0492 29.5582 73.2045 29.7778 73.3879 29.7778C73.5841 29.7778 73.4091 29.6631 73.0682 29.5681C72.3417 29.3653 71.3288 29.0462 70.3811 28.7219C69.578 28.4469 69.3 28.314 69.0742 28.099C68.7326 27.7731 68.7008 27.5034 68.9735 27.2292C69.1326 27.0697 69.2303 27.0431 69.65 27.0431C70.1538 27.0431 70.2235 27.0545 71.7985 27.388C72.7008 27.5786 73.2053 27.5756 72.6045 27.3826C72.4432 27.331 71.9015 27.1601 71.4015 27.0036C70.3045 26.6595 69.878 26.4734 69.6023 26.2189C69.3318 25.9697 69.322 25.618 69.578 25.3772C69.7477 25.2177 69.8106 25.207 70.3924 25.2443C70.7386 25.2663 71.1765 25.3172 71.3636 25.3559C71.947 25.4782 73.1197 25.7395 73.6742 25.871C74.4386 26.0518 74.8038 26.092 74.7402 25.9887C74.7114 25.9416 74.5902 25.9036 74.4697 25.9036C74.3492 25.9036 74.2326 25.8732 74.2099 25.8368C74.1871 25.7996 74.0742 25.7525 73.9591 25.7327C73.6068 25.6712 72.0379 25.1493 71.5636 24.9359C71.2205 24.7816 71.0924 24.6776 71.0144 24.4899C70.8735 24.1527 70.9955 23.8146 71.2939 23.7098C71.5417 23.6232 72.2758 23.6931 73.1439 23.8868C73.7621 24.0243 73.8636 24.0304 73.8636 23.9316C73.8636 23.8921 73.6167 23.7865 73.3144 23.6976C72.647 23.5024 71.5879 23.1507 70.8712 22.8879C69.9848 22.562 69.7182 22.1601 70.0811 21.6975C70.2235 21.5167 70.2864 21.4977 70.7439 21.5C71.0227 21.5015 71.4886 21.5365 71.7803 21.5783C72.8553 21.7309 73.1818 21.7499 73.1818 21.6603C73.1818 21.6124 73.125 21.5737 73.0561 21.5737C72.9864 21.5737 72.4492 21.4134 71.8629 21.2167C70.4379 20.7411 70.1136 20.413 70.5356 19.8744C70.6758 19.6959 70.7447 19.6746 71.1727 19.6746C71.4371 19.6746 72.1076 19.7468 72.6636 19.8356C74.15 20.0719 74.2424 20.081 74.2424 19.9868C74.2424 19.9405 74.1727 19.9025 74.0871 19.9025C73.6803 19.9025 71.6939 19.177 71.4606 18.9438C71.2485 18.7304 71.2356 18.3885 71.4311 18.147C71.5674 17.9776 71.6136 17.9707 72.4598 17.9859C72.947 17.995 73.7364 18.0543 74.2144 18.1173C74.2826 18.1257 74.3455 18.1341 74.4038 18.1417C75.0015 18.2207 75.1341 18.2381 75.1432 18.2123C75.1462 18.2047 75.1386 18.1941 75.1288 18.1796C75.1258 18.1751 75.1227 18.1698 75.1189 18.1637C75.0962 18.1272 74.9492 18.0733 74.7924 18.0452C74.2773 17.9517 73.1485 17.5347 72.8985 17.3463C72.4477 17.0068 72.497 16.497 73 16.2859C73.2273 16.1909 73.3705 16.1856 73.8523 16.2555C74.7197 16.3808 75.1674 16.4598 76.2333 16.6748C77.2477 16.8791 77.6258 16.8609 76.9947 16.6383C76.0841 16.3162 75.8333 16.1104 75.8333 15.6842C75.8333 15.2209 75.9598 15.154 76.8114 15.1631C77.5121 15.1707 77.9644 15.23 78.8561 15.4298C79.0833 15.4806 79.2144 15.4791 79.2689 15.4244C79.3242 15.369 79.3159 15.3447 79.2409 15.3447C79.1258 15.3447 78.1689 15.0682 77.9167 14.9618C77.8333 14.9261 77.4583 14.8084 77.0833 14.699C76.0523 14.3982 75.4136 14.1414 75.1962 13.9386C74.9591 13.7183 74.9386 13.3863 75.1455 13.1311C75.2818 12.9632 75.3371 12.9526 76.0068 12.967C76.4008 12.9761 77.2129 13.0559 77.8121 13.1448L77.9348 13.1638C79.1902 13.3506 79.5008 13.397 79.5189 13.343C79.525 13.3248 79.5 13.2967 79.4659 13.2587C79.4629 13.2549 79.4591 13.2511 79.4561 13.2473C79.1591 12.9116 79.1394 12.3912 79.4174 12.2142C79.5568 12.1253 81.0833 12.1443 81.6742 12.2416C82.3197 12.3487 82.5083 12.2499 82.0523 12.0433C81.5576 11.8192 81.4826 11.2647 81.9099 10.9844C82.0477 10.894 83.5864 10.7208 84.3409 10.7116C84.3735 10.7109 84.3788 10.5947 84.3523 10.4534C84.2962 10.1526 84.397 9.92694 84.6652 9.7507C84.8833 9.60713 84.9644 9.62536 86.7796 10.2217C87.9492 10.6061 88.1447 10.7458 88.0803 11.1507C88.0553 11.3057 87.9705 11.485 87.8924 11.5495C87.7644 11.6544 86.7894 11.8108 85.8712 11.8739C85.528 11.8974 85.5705 11.921 86.3636 12.1504C88.2765 12.7034 89.1591 13.0118 89.4083 13.2146C89.6349 13.3985 89.6364 13.8436 89.4121 14.0692C89.2636 14.2174 89.1758 14.2326 88.5068 14.2196C88.0985 14.2128 87.5258 14.1688 87.2333 14.1224C86.9409 14.0761 86.6174 14.0525 86.5136 14.07C86.2917 14.108 86.325 14.1247 87.1129 14.3655C87.85 14.5911 88.1061 14.8061 88.1061 15.1996C88.1061 15.4016 88.0546 15.5483 87.9447 15.6584C87.7939 15.8096 87.7341 15.8172 86.9788 15.7701C86.5364 15.7427 86.0205 15.688 85.8333 15.6493C85.3402 15.5467 83.9758 15.3447 83.7765 15.3447C83.497 15.3447 83.7129 15.4639 84.2424 15.6037C84.5129 15.6744 84.8197 15.761 84.9242 15.7951C85.0288 15.8301 85.3697 15.9349 85.6818 16.0291C86.8371 16.3778 88.3015 16.8822 88.5008 16.9999C88.9689 17.2764 88.9364 17.9077 88.4432 18.1143C88.228 18.2039 88.0591 18.1986 87.1849 18.0756C86.6288 17.9966 86.0553 17.8971 85.9099 17.8538C85.6242 17.7694 85.3538 17.7542 85.3303 17.8143V17.8135C85.3061 17.7504 85.197 17.7011 85.0864 17.7033L84.8864 17.7064L85.1136 17.8105C85.2386 17.8682 85.3485 17.9176 85.3576 17.9214C85.3644 17.9236 85.3591 17.8963 85.3455 17.8545C85.3811 17.8902 85.4826 17.935 85.5864 17.9593C86.3038 18.1257 87.978 18.7296 88.1394 18.8793C88.3955 19.117 88.4561 19.4011 88.3023 19.6366C88.1606 19.8539 87.678 20.081 87.5038 20.0134C87.4394 19.9883 87.1477 19.939 86.8561 19.9033C86.0439 19.8045 83.9886 19.4308 82.5939 19.1284C82.375 19.0813 82.178 19.0601 82.1568 19.0821C82.1349 19.1041 82.1515 19.2135 82.1947 19.3259C82.3053 19.6191 82.122 20.0324 81.85 20.1008C81.5697 20.1714 79.4955 20.0187 78.75 19.8721C78.0326 19.7316 78.0303 19.7316 78.0303 19.8174C78.0303 19.8546 78.1068 19.9025 78.2008 19.9238C78.5932 20.0126 81.2508 20.8194 82.1606 21.1255C83.2462 21.4901 83.5606 21.7066 83.5606 22.0887C83.5606 22.2194 83.4841 22.3941 83.375 22.5118C83.2197 22.6797 83.1235 22.7132 82.7962 22.7132C82.3773 22.7132 81.8576 22.6387 80.6402 22.404C79.7902 22.2407 79.697 22.2315 79.697 22.3166C79.697 22.3493 79.8591 22.4215 80.0568 22.4761C80.2546 22.5308 80.6515 22.663 80.9386 22.7694C81.4046 22.9418 81.472 22.9927 81.5727 23.2495C81.647 23.4401 81.747 23.5526 81.8682 23.5829C82.0515 23.6293 82.7712 23.7075 84.3561 23.8549C84.8144 23.8974 85.4788 23.965 85.8333 24.0053C86.1879 24.0463 86.6743 24.0797 86.9152 24.0797C87.7659 24.0813 88.1788 24.4345 87.9326 24.9518C87.7652 25.305 87.525 25.3392 86.0689 25.2192C85.4182 25.1653 84.6992 25.1068 84.4697 25.0878C84.0053 25.0506 84.0235 25.1417 84.5076 25.2807C85.7826 25.6461 86.2833 25.7935 87.0455 26.0282C88.7985 26.5683 89.0909 26.7301 89.0909 27.1616C89.0909 27.296 89.0258 27.4867 88.9462 27.5855C88.8227 27.7374 88.7409 27.7625 88.403 27.748C88.0599 27.7336 87.9803 27.7587 87.822 27.9296C87.6439 28.1233 87.6212 28.1271 86.9826 28.0792C86.6212 28.0519 86.2235 28.0086 86.0985 27.9828C85.5826 27.8756 86.0743 28.1073 87.078 28.4454C88.2841 28.8503 88.3705 28.889 88.6553 29.1556C88.9356 29.4177 88.9311 29.7223 88.6424 30.0117C88.4727 30.1811 88.3523 30.2328 88.1311 30.2305C87.7356 30.2275 85.9886 29.9343 85.4167 29.7755C84.8621 29.6213 84.7727 29.6076 84.7727 29.6752C84.7727 29.7124 85.0371 29.8249 85.3599 29.9251C86.128 30.1637 86.7023 30.4212 86.8924 30.6119C87.2136 30.9339 87.0333 31.5379 86.5667 31.7027C86.4068 31.7597 85.5712 31.6305 83.9773 31.3031C83.3523 31.1748 82.7743 31.0692 82.6932 31.0692C82.4243 31.0692 82.6765 31.1975 83.2197 31.3366C83.5114 31.4118 83.7826 31.5022 83.822 31.5371C83.8614 31.572 83.9508 31.6009 84.0205 31.6009C84.1917 31.6009 84.9136 31.8987 85.1705 32.0757C85.3432 32.1942 85.3788 32.2747 85.3788 32.5436C85.3788 33.0412 85.2015 33.1604 84.4758 33.1506C84.1553 33.146 83.725 33.105 83.5189 33.0594C83.3129 33.0138 82.6492 32.887 82.0455 32.7783C81.4417 32.669 80.828 32.5497 80.6818 32.5117C80.5356 32.4745 80.1273 32.3871 79.7727 32.3172C79.4182 32.2481 78.9924 32.1623 78.8258 32.1273C78.2917 32.0142 78.2053 32.0347 78.1561 32.2823C78.0644 32.7396 77.7939 32.8672 77.0174 32.8194C76.6356 32.7958 76.7136 32.9356 77.1432 33.0457C77.6818 33.184 78.4349 33.4263 78.6833 33.541C78.978 33.677 79.1333 34.0166 79.0364 34.3128C78.8939 34.745 78.4758 34.8051 76.4394 34.682C75.2159 34.6083 75.2083 34.6759 76.4015 35.017C77.8303 35.4249 79.075 35.8587 79.2765 36.0174C79.4235 36.1329 79.4697 36.2393 79.4697 36.4595C79.4697 36.8667 79.2765 37.0764 78.8606 37.1227C78.5235 37.1599 76.0795 36.8416 75.4795 36.6821C75.3053 36.6358 75.1182 36.6145 75.0629 36.635C75.0303 36.6472 75.0008 36.6533 74.9985 36.6639C74.9939 36.689 75.1394 36.7391 75.7462 36.9518C75.8189 36.9776 75.8985 37.005 75.9848 37.0354C77.0992 37.4266 77.4182 37.7836 77.0803 38.2667C76.8917 38.5372 76.5061 38.5941 75.4144 38.5144C74.1826 38.424 73.6614 38.4194 73.7538 38.5007C73.8356 38.5729 74.5909 38.8175 74.7311 38.8175C74.7818 38.8175 75.025 38.882 75.2712 38.9618C75.5182 39.0408 76.1288 39.2315 76.6288 39.3849C78.7144 40.0253 78.9394 40.1491 78.9394 40.6512C78.9394 41.1777 78.4515 41.3979 77.5159 41.2946C77.278 41.2688 76.7424 41.2263 76.3258 41.2012C75.4583 41.148 75.4386 41.2179 76.25 41.4709C77.247 41.7816 77.5705 42.0003 77.5742 42.365C77.5765 42.64 77.4106 42.9203 77.2159 42.9689C77.0386 43.0137 75.8773 42.9605 75.1136 42.8724C74.6909 42.8238 74.7114 42.9248 75.1515 43.057C77.372 43.7224 77.7538 43.8842 77.8644 44.201C77.9636 44.4882 77.8947 44.7988 77.7015 44.9348C77.5167 45.0647 76.8432 45.0769 75.9848 44.9667C74.9674 44.8361 74.3386 44.7981 74.3492 44.8665L74.3485 44.8642ZM45.6439 38.5387C46.0379 38.6344 48.328 38.5432 49.0667 38.4027C49.7667 38.269 49.9121 38.2644 50.6576 38.3533C51.1083 38.4073 51.6053 38.4787 51.7621 38.5121C52.1311 38.5919 52.1697 38.5121 51.8909 38.2455C51.6129 37.9781 51.5871 37.6058 51.8295 37.3628C51.9894 37.2025 52.025 37.1994 53.5758 37.2465C54.4455 37.2724 55.1402 37.2655 55.1182 37.2298C55.097 37.1949 54.9833 37.147 54.8667 37.1235C54.5053 37.0505 54.2424 36.7429 54.2424 36.3919C54.2424 36.1481 54.2818 36.0607 54.4356 35.9589C54.6061 35.8473 54.7803 35.8382 55.8561 35.8837C56.5311 35.9119 57.2742 35.9741 57.5068 36.0212C57.7402 36.0691 57.9955 36.0828 58.075 36.0524C58.1795 36.0114 57.8871 35.8837 57.0174 35.5913C55.747 35.1644 55.4591 35.0102 55.3477 34.6957C55.2583 34.4435 55.4136 34.0553 55.6333 33.9839C55.8568 33.9117 56.6379 33.9429 57.5227 34.0599C57.9508 34.1161 58.2826 34.129 58.3068 34.0895C58.3091 34.0864 58.3106 34.0826 58.3129 34.0796C58.3235 34.0629 58.3318 34.0492 58.3311 34.0371C58.3273 33.99 58.1947 33.9535 57.5758 33.7704C55.2227 33.0746 54.8485 32.8794 54.8485 32.3476C54.8485 31.8858 55.0379 31.7528 55.6955 31.7528C55.9947 31.7528 56.5492 31.7885 56.9265 31.8334C58.4788 32.0142 58.6455 32.0278 58.6765 31.9777C58.6939 31.9488 58.3598 31.8144 57.9341 31.6784C56.5485 31.2378 55.5727 30.9081 55.3371 30.801C54.9894 30.6438 54.8182 30.4144 54.8182 30.1059C54.8182 29.5393 55.3212 29.4306 56.8629 29.6631C57.2758 29.7261 57.6735 29.777 57.7462 29.777C58.0023 29.7785 57.875 29.6578 57.5189 29.562C56.8924 29.3942 56.3311 29.227 56.1742 29.1625C56.0909 29.1283 55.8492 29.0455 55.6371 28.9786C54.8803 28.7394 54.5599 28.415 54.6659 27.9926C54.7485 27.6614 54.9735 27.5369 55.4811 27.5399C56.0159 27.5444 57.3083 27.7009 57.7879 27.8202C58.0053 27.8741 58.1394 27.8756 58.1902 27.8248C58.2409 27.7739 58.1447 27.7176 57.9015 27.6546C57.7015 27.6029 57.4697 27.5315 57.3864 27.4958C57.303 27.4601 56.8258 27.3074 56.3258 27.1555C54.4636 26.5919 53.9394 26.31 53.9394 25.8748C53.9394 25.2716 54.2386 25.1698 55.6689 25.2876C56.2803 25.3369 56.9992 25.4091 57.2667 25.4478C57.5333 25.4858 57.7856 25.4965 57.8273 25.4706C57.8682 25.4456 57.428 25.2648 56.8485 25.0695C56.2697 24.8751 55.7205 24.6745 55.6288 24.6252C55.053 24.3137 55.1182 23.5427 55.7295 23.428C55.9962 23.3778 57.0742 23.4887 57.7121 23.6316C57.8917 23.6718 58.075 23.6817 58.1197 23.6543C58.1939 23.6088 58.053 23.5518 57.3106 23.3269C55.3394 22.7314 54.1227 22.3311 53.6015 22.107C53.0379 21.8646 52.8447 21.4529 53.0614 20.9561C53.1061 20.8536 52.953 20.7814 52.1447 20.5239C49.8439 19.7916 48.9356 19.5667 47.7841 19.4437C46.9068 19.351 45.8439 19.4224 44.8106 19.6457C44.3295 19.7498 44.1455 19.803 43.6742 19.9724C43.1538 20.16 41.697 20.9493 41.25 21.2858C40.0758 22.17 39.1061 23.3269 38.4591 24.6191C37.397 26.7377 37.15 28.8799 37.6894 31.2933C38.0765 33.0283 39.247 34.9653 40.6364 36.1716C41.9485 37.3096 43.2038 37.9591 44.8485 38.3488C45.203 38.4331 45.5606 38.5182 45.6439 38.5387ZM89.197 54.2275C89.0568 54.292 77.7833 54.3141 45.1402 54.3141H1.27273L1.00606 54.0467C0.775758 53.8157 0.746212 53.7451 0.787879 53.5339C0.814394 53.3987 0.912121 53.2293 1.0053 53.1571C1.16515 53.0333 3.60227 53.0257 45.1758 53.0242C73.7356 53.0234 89.225 53.0485 89.3152 53.0971C89.3917 53.1381 89.4909 53.2787 89.5364 53.4101C89.6409 53.7094 89.4788 54.0991 89.197 54.2275ZM41.6909 64.1369C41.275 64.2851 39.6 64.3572 39.1697 64.2448C38.7205 64.1278 38.7121 64.08 38.7121 61.5481V59.2441L38.9129 59.058C39.1061 58.8787 39.1515 58.8719 40.1894 58.8719C41.5477 58.8719 41.9265 58.9813 42.5258 59.5472C42.9121 59.9118 43.1614 60.4208 43.2727 61.071C43.4924 62.3548 42.7712 63.751 41.6909 64.1369ZM16.8917 64.203C16.5788 64.4347 15.9015 64.4719 15.4924 64.2797C14.8333 63.9698 14.3182 63.0803 14.3182 62.2523C14.3182 61.4569 14.7826 60.6206 15.3985 60.3053C15.6515 60.1754 15.8 60.1541 16.2432 60.1853C16.5386 60.2058 16.8568 60.2468 16.9508 60.2772C17.1197 60.3327 17.1212 60.3273 17.1212 59.5677C17.1212 58.878 17.1379 58.7868 17.2871 58.647C17.3902 58.5506 17.5545 58.4928 17.7227 58.4936C18.3242 58.4959 18.3333 58.5376 18.3333 61.3787C18.3333 63.0886 18.3068 63.8695 18.2455 63.9858C18.0439 64.3641 17.7598 64.4301 17.3652 64.1886L17.1159 64.0367L16.8917 64.203ZM46.372 64.2516C45.5326 64.7249 44.4295 64.1817 44.0242 63.0947C43.6394 62.0639 43.9788 60.9282 44.8341 60.3843C45.2871 60.0964 45.9909 60.0721 46.4462 60.3281C46.7212 60.4831 46.7477 60.4854 46.8795 60.3661C47.1023 60.164 47.5348 60.2012 47.722 60.439C47.8689 60.6274 47.8788 60.736 47.8788 62.2295C47.8788 63.8376 47.8492 64.0382 47.5826 64.244C47.4167 64.3717 47.2485 64.3633 46.9341 64.2137C46.6765 64.0898 46.6561 64.0913 46.372 64.2516ZM69.597 64.2228C68.6174 64.7986 67.4288 64.0951 67.1205 62.7567C66.8902 61.757 67.3977 60.6168 68.228 60.2689C68.6061 60.1101 69.2682 60.1344 69.6318 60.3205C69.9114 60.4641 69.95 60.4671 70.0697 60.3585C70.1424 60.2932 70.3182 60.24 70.4606 60.2407C71.0197 60.243 71.0606 60.379 71.0606 62.2507C71.0606 63.4768 71.0364 63.8635 70.95 64.0321C70.7705 64.38 70.4485 64.44 70.1258 64.1848L69.9273 64.0291L69.597 64.2228ZM81.1553 64.3086C80.1841 64.6565 79.0644 64.1468 78.6455 63.1669C78.5068 62.8417 78.4538 61.9985 78.55 61.643C78.6917 61.1204 79.0455 60.6479 79.4849 60.3957C79.8311 60.1967 79.9629 60.1648 80.4379 60.164C81.3197 60.1625 81.8553 60.4846 82.2455 61.2511C82.3962 61.5466 82.4333 61.7342 82.4364 62.2249C82.4394 62.7574 82.4106 62.8919 82.2008 63.3203C81.9455 63.8399 81.6288 64.1392 81.1553 64.3086ZM24.9114 64.3003C24.4288 64.4438 23.6985 64.4461 23.3053 64.3056C22.5667 64.042 22.0492 63.3097 21.9871 62.4407C21.922 61.5291 22.2856 60.8325 23.0576 60.3889C23.3947 60.1952 23.5242 60.1648 24.022 60.164C24.4788 60.1633 24.6659 60.1997 24.9311 60.3403C25.3545 60.5636 25.7121 61.0308 25.8652 61.5595C26.022 62.0988 26.0159 62.2295 25.828 62.4703L25.6705 62.6701H24.5023C23.4167 62.6701 23.3333 62.6799 23.3333 62.8106C23.3333 62.9815 23.5629 63.2018 23.7417 63.2018C23.8144 63.2018 23.9409 63.2383 24.0235 63.2823C24.1402 63.3446 24.2947 63.3173 24.7189 63.1578C25.5614 62.841 25.8333 62.9078 25.8333 63.4312C25.8333 63.6637 25.7833 63.7617 25.5689 63.9501C25.4242 64.0784 25.128 64.2357 24.9114 64.3003ZM6.74848 64.1195C6.475 64.3929 6.19394 64.4058 5.94318 64.1552L5.75758 63.9683V61.3825C5.75758 58.8969 5.76364 58.7898 5.90909 58.644C6.06212 58.4905 6.53939 58.4351 6.71212 58.5506C6.89924 58.6751 6.9697 58.9729 6.9697 59.6353C6.9697 60.3251 6.97197 60.3319 7.14015 60.2765C7.23409 60.2461 7.58333 60.2066 7.91667 60.1891C8.4447 60.1617 8.56061 60.18 8.81894 60.3311C9.36288 60.6502 9.43182 60.8986 9.43182 62.544V63.9744L9.21894 64.1582C8.94773 64.3922 8.67879 64.3906 8.44318 64.1552C8.26515 63.9759 8.25758 63.9257 8.24848 62.9207C8.23561 61.3787 8.1697 61.2017 7.61061 61.2017C7.01591 61.2017 6.9697 61.3111 6.9697 62.7225V63.8969L6.74848 64.1195ZM60.2 64.203C59.8591 64.3777 58.7614 64.4674 58.4053 64.3504C57.2061 63.9546 56.6273 62.5235 57.1864 61.3377C57.5682 60.5287 58.1576 60.1633 59.0795 60.1633C59.6311 60.1633 59.7098 60.183 60.0462 60.4101C60.5773 60.7679 60.8599 61.267 60.8962 61.9104C60.9379 62.6442 60.8886 62.6701 59.453 62.6701C58.4152 62.6701 58.3333 62.6799 58.3333 62.8106C58.3333 62.9982 58.5341 63.157 58.9061 63.2633C59.222 63.3537 59.3879 63.3241 59.9735 63.0757C60.4758 62.8623 60.9091 63.0317 60.9091 63.4411C60.9091 63.6371 60.5485 64.0253 60.2 64.203ZM4.29773 64.2881C2.9197 64.7234 1.49394 64.0655 0.968182 62.7521C0.828788 62.4042 0.798485 62.1847 0.801515 61.5306C0.804545 60.7649 0.815152 60.711 1.08106 60.1899C1.37348 59.6163 1.75682 59.238 2.31061 58.9767C2.55455 58.862 2.79091 58.8339 3.52273 58.8339C4.35227 58.8339 4.45303 58.8491 4.67803 59.0101C4.81364 59.1074 4.96136 59.2563 5.00682 59.3406C5.13106 59.5738 5.02349 59.9923 4.80152 60.1382C4.62424 60.2552 4.58258 60.2552 4.21136 60.1374C3.76818 59.9977 3.21439 59.9734 2.92879 60.0827C2.2197 60.3532 1.89848 61.542 2.30076 62.4072C2.49848 62.8334 2.71136 63.0058 3.20152 63.1372C3.48636 63.2132 3.60455 63.2033 4.07045 63.0613C4.68182 62.8752 4.94394 62.9192 5.08636 63.233C5.27424 63.6462 4.94848 64.0822 4.29773 64.2881ZM49.7136 64.1924C49.3871 64.4499 49.0303 64.3572 48.8258 63.9615C48.7364 63.7875 48.7121 63.4274 48.7121 62.2523C48.7121 60.4147 48.772 60.2392 49.403 60.2392C49.5258 60.2392 49.7068 60.2924 49.8053 60.357C49.9705 60.4648 50.0045 60.4618 50.2386 60.319C50.6129 60.0903 51.4735 60.0987 51.8189 60.3342C52.3674 60.7087 52.3841 60.7672 52.4098 62.4467L52.4333 63.9592L52.2424 64.1506C52.003 64.3906 51.7356 64.3937 51.4629 64.1582L51.25 63.9751L51.2121 62.7172C51.1689 61.2723 51.1333 61.1857 50.5977 61.1994C50.0311 61.2146 49.9848 61.3263 49.9409 62.7802C49.9038 64.0154 49.8985 64.0465 49.7136 64.1924ZM27.6174 64.1552C27.3818 64.3906 27.1129 64.3922 26.8417 64.1582L26.6288 63.9744V62.2606C26.6288 60.5902 26.6333 60.5431 26.7977 60.3782C27.0068 60.1678 27.4303 60.1526 27.6439 60.3463C27.7909 60.4793 27.8045 60.4785 28.0545 60.3235C28.2576 60.1982 28.4356 60.1633 28.8803 60.1633C29.3894 60.1633 29.4788 60.1861 29.7598 60.3912C30.2477 60.7451 30.303 60.9609 30.303 62.5105C30.303 63.6454 30.2833 63.8802 30.175 64.0397C30.0053 64.2881 29.9242 64.339 29.6924 64.3397C29.4644 64.3413 29.1841 64.1043 29.1311 63.8642C29.1106 63.7715 29.0848 63.1927 29.0735 62.5774C29.05 61.2974 29.0144 61.2131 28.4841 61.1994C28.225 61.1926 28.1333 61.2298 27.9848 61.403C27.8098 61.6073 27.803 61.659 27.803 62.7916C27.803 63.9394 27.7985 63.9728 27.6174 64.1552ZM87.428 65.7588C87.1841 65.9851 86.8909 65.9859 86.6796 65.761C86.4455 65.5104 86.472 65.186 86.7849 64.4727L87.0546 63.8581L86.5864 62.7544C85.7758 60.8447 85.7318 60.7072 85.8727 60.4929C86.0962 60.1496 86.5871 60.0934 86.847 60.3813C86.9106 60.4512 87.0871 60.8333 87.2394 61.229C87.672 62.3548 87.7099 62.3875 87.9212 61.8178C88.4129 60.4952 88.6068 60.2142 89.0265 60.2142C89.1955 60.2142 89.3205 60.2772 89.45 60.4284C89.6492 60.6601 89.6455 60.9199 89.4371 61.3521C89.3008 61.6347 89.175 61.9256 88.3273 63.9166C87.8932 64.9361 87.5447 65.6494 87.428 65.7588ZM64.6606 64.143C64.4114 64.4119 64.0333 64.4127 63.7818 64.1453L63.5985 63.9493V59.2388L63.8114 59.055C64.0159 58.8787 64.0667 58.8719 65.1856 58.8719C66.2076 58.8719 66.3682 58.8886 66.522 59.0139C66.7409 59.1917 66.7599 59.63 66.5591 59.8533C66.4402 59.984 66.3098 60.0091 65.6538 60.028L64.8864 60.0493V60.9609L65.5659 60.9829C66.3795 61.0095 66.5152 61.0938 66.5152 61.5709C66.5152 62.0206 66.3939 62.0935 65.5758 62.1383L64.8864 62.1763L64.8652 63.0605C64.8455 63.8749 64.8295 63.9599 64.6606 64.143ZM35.2265 64.2281C34.122 64.7887 32.4341 64.0245 32.997 63.2185C33.15 62.9997 33.6053 62.9922 34.0152 63.2018C34.4008 63.3993 34.672 63.3993 34.7348 63.2026C34.8045 62.9808 34.75 62.9321 34.1659 62.702C33.4326 62.4141 33.053 62.076 32.9902 61.656C32.9379 61.3073 33.075 60.8637 33.3174 60.5947C33.8326 60.0235 35.2841 60.0091 35.7485 60.5704C35.9061 60.7603 35.822 61.2298 35.6023 61.3939C35.4114 61.5359 35.403 61.5359 35.0379 61.3787C34.2652 61.0467 33.825 61.3946 34.5833 61.738C35.4045 62.1095 35.6477 62.2621 35.8129 62.5105C36.1886 63.0734 35.9136 63.8787 35.2265 64.2281ZM55.8485 64.2995C54.853 64.639 53.8273 64.2 53.3742 63.239C53.1015 62.661 53.1015 61.8428 53.375 61.2632C53.722 60.5286 54.3235 60.1678 55.2068 60.1648C55.8356 60.1633 56.2977 60.316 56.4348 60.572C56.5773 60.8393 56.5068 61.2275 56.2856 61.3924C56.1061 61.5261 56.072 61.5276 55.7644 61.4189C55.2265 61.229 54.947 61.2647 54.6515 61.561C54.4152 61.798 54.3939 61.8573 54.3939 62.2811C54.3939 62.6799 54.4227 62.7764 54.6061 62.9815C54.7924 63.1904 54.8659 63.2193 55.2129 63.2193C55.4303 63.2193 55.7076 63.1783 55.8288 63.1281C56.1803 62.9815 56.4705 63.157 56.5015 63.5338C56.5311 63.9014 56.3333 64.1339 55.8485 64.2995ZM74.647 64.2311C74.2023 64.4476 73.375 64.4605 72.9924 64.2577C72.2205 63.8475 71.7924 63.1631 71.7871 62.3282C71.7826 61.6134 71.9636 61.1098 72.3689 60.7163C72.8 60.297 73.1545 60.1633 73.8371 60.1633C74.7826 60.1633 75.2492 60.4907 75.1068 61.0536C75.0061 61.4516 74.8811 61.4995 74.2553 61.381C73.3826 61.2161 73.0303 61.4645 73.0303 62.2462C73.0303 62.9838 73.2523 63.2284 73.8939 63.2003L73.9295 63.1988C74.7674 63.1608 74.9667 63.1524 75.047 63.2459C75.0735 63.2763 75.0871 63.3173 75.1068 63.372C75.2144 63.6758 75.0121 64.0534 74.647 64.2311ZM77.2076 64.1962C76.9371 64.4157 76.6386 64.3823 76.4083 64.1073C76.2144 63.8771 76.2121 63.8574 76.2121 62.626C76.2121 61.4592 76.203 61.3787 76.0705 61.3787C75.9932 61.3787 75.8379 61.3065 75.7258 61.2184C75.5553 61.0839 75.5265 61.008 75.5455 60.7512C75.5689 60.4398 75.6265 60.3752 76.0038 60.2407C76.1992 60.1716 76.2121 60.139 76.2121 59.7196C76.2121 59.3375 76.2409 59.2433 76.4121 59.0724C76.6576 58.8255 77.022 58.8058 77.2583 59.0268C77.3894 59.1491 77.4242 59.2677 77.4242 59.5905C77.4242 60.1579 77.4682 60.2392 77.7765 60.2392C78.0735 60.2392 78.4091 60.5173 78.4091 60.7634C78.4091 61.0171 78.0886 61.3172 77.7606 61.3703L77.4621 61.4189L77.4242 62.7354C77.3879 64.0047 77.3803 64.0564 77.2076 64.1962ZM13.3614 64.184C13.0818 64.4043 12.7742 64.3876 12.5811 64.1415C12.4311 63.9493 12.4235 63.8437 12.4129 61.6157C12.3992 58.919 12.4008 58.8886 12.5455 58.663C12.6311 58.5293 12.7258 58.4921 12.9826 58.4921C12.9977 58.4921 13.0136 58.4921 13.028 58.4921C13.1636 58.4913 13.2652 58.4913 13.3402 58.5354C13.5614 58.6637 13.5606 59.1727 13.5606 61.169C13.5606 61.2435 13.5606 61.3194 13.5606 61.3984V64.026L13.3614 64.184ZM83.8697 64.1195C83.5947 64.3952 83.3386 64.402 83.0788 64.1407L82.8788 63.9409V62.2553C82.8788 60.5917 82.8811 60.5674 83.0538 60.4041C83.2621 60.2088 83.6765 60.1845 83.9182 60.3547C84.0674 60.4595 84.1053 60.4557 84.3333 60.3167C84.4803 60.2271 84.7167 60.164 84.9061 60.1633C85.1864 60.1633 85.2485 60.1944 85.3712 60.3972C85.6258 60.8173 85.4432 61.125 84.7856 61.3825C84.1076 61.6484 84.0909 61.6848 84.0909 62.8744V63.8969L83.8697 64.1195ZM20.1621 64.1962C19.9189 64.3937 19.6515 64.3785 19.428 64.1552L19.2424 63.9683V62.2561C19.2424 60.6441 19.2515 60.534 19.3939 60.3912C19.5795 60.205 20.0068 60.1899 20.2659 60.3608C20.4379 60.474 20.4636 60.4709 20.6523 60.3228C20.9326 60.101 21.4545 60.1048 21.6636 60.3296C22.0235 60.7163 21.7735 61.207 21.128 61.381C20.9674 61.4243 20.7417 61.5405 20.6273 61.64C20.4212 61.8178 20.4182 61.8329 20.3795 62.9352C20.3432 63.9934 20.3318 64.0587 20.1621 64.1962ZM40.0758 63.0499C40.2409 63.2155 40.4152 63.2337 40.8561 63.1312C41.5962 62.9587 41.9318 62.4604 41.9318 61.5329C41.9318 60.5249 41.6008 60.139 40.6515 60.0417L40.6341 60.0402C40.3682 60.0129 40.2015 59.9954 40.0977 60.0683C39.9242 60.1891 39.9242 60.559 39.9242 61.5458V61.583C39.9242 62.7969 39.9356 62.9094 40.0758 63.0499ZM11.1712 64.2942C10.928 64.3876 10.7417 64.3375 10.5242 64.1195L10.303 63.8969V62.2751C10.303 60.5226 10.3311 60.3874 10.7242 60.2377C10.9727 60.1428 11.3235 60.2795 11.4288 60.5127C11.4841 60.6342 11.5152 61.2571 11.5152 62.2599C11.5152 63.8809 11.4644 64.181 11.1712 64.2942ZM31.7667 61.1318C31.5629 61.2822 31.297 61.2435 31.0864 61.0315C30.8364 60.7808 30.8727 60.5818 31.3212 59.7584C31.797 58.8848 31.8205 58.859 32.1538 58.8491C32.525 58.8392 32.7614 59.0937 32.7023 59.4401C32.6553 59.7181 31.947 60.9989 31.7667 61.1318ZM68.5833 63.0309C68.7765 63.2436 69.2795 63.2633 69.5121 63.0674C69.8432 62.7886 69.9485 62.1725 69.7356 61.7593C69.4099 61.1288 68.6341 61.1538 68.3629 61.8041C68.1705 62.2675 68.2394 62.6518 68.5833 63.0309ZM45.3424 63.0203C45.4788 63.157 45.6061 63.2018 45.8614 63.2018C46.1439 63.2018 46.2303 63.1646 46.3917 62.9716C47.1167 62.1072 46.1917 60.7755 45.3773 61.5116C44.9932 61.8588 44.975 62.6518 45.3424 63.0203ZM16.1742 63.2056C16.4288 63.277 16.6591 63.1942 16.8538 62.9625C17.6076 62.0646 16.5803 60.7292 15.7856 61.5739C15.5742 61.7988 15.5303 61.9036 15.5303 62.1854C15.5303 62.7187 15.7667 63.0924 16.1742 63.2056ZM80.0227 63.0309C80.2477 63.2785 80.7462 63.2687 81.003 63.0111C81.2326 62.781 81.3212 62.3161 81.2121 61.9097C81.0136 61.1705 80.0909 61.0786 79.8144 61.7707C79.6114 62.2804 79.6712 62.6435 80.0227 63.0309ZM11.3894 59.6323C11.1273 59.9437 10.7568 59.946 10.4485 59.6376C10.178 59.3656 10.1523 58.9881 10.3841 58.6918C10.5144 58.5262 10.6023 58.4921 10.903 58.4921C11.2765 58.4921 11.3992 58.5711 11.5856 58.9319C11.6947 59.1431 11.6417 59.3315 11.3894 59.6323ZM58.3356 61.7015C58.3333 61.8185 58.4152 61.8345 59.0152 61.8345C59.625 61.8345 59.697 61.82 59.697 61.6955C59.697 61.2435 58.8038 61.0072 58.4962 61.3787C58.4091 61.4835 58.3371 61.6286 58.3356 61.7015ZM23.3629 61.7266C23.3939 61.8079 23.5621 61.8345 24.0508 61.8345C24.6258 61.8345 24.697 61.8193 24.697 61.6955C24.697 61.3916 24.1424 61.0969 23.7538 61.1949C23.5386 61.2488 23.303 61.5694 23.3629 61.7266ZM62.9924 7.44444C62.9667 7.40266 63.0045 7.36848 63.0765 7.36848C63.2909 7.36848 63.1659 7.31683 62.822 7.26441C62.4583 7.2082 62.3939 7.29707 62.7083 7.42166C62.9841 7.53104 63.0492 7.53636 62.9924 7.44444ZM62.597 31.7452C62.4629 31.6594 62.2924 31.6024 62.2182 31.6199C62.1167 31.6427 62.1492 31.6807 62.3485 31.7711C62.7295 31.945 62.8833 31.9291 62.597 31.7452ZM57.9924 40.7925C58.0182 40.7507 57.9947 40.7158 57.9402 40.7158C57.8856 40.715 57.7644 40.6938 57.6705 40.6687C57.5735 40.6429 57.5 40.6573 57.5 40.7021C57.5 40.7462 57.5765 40.7971 57.6705 40.8145C57.7644 40.8328 57.8644 40.8525 57.8932 40.8578C57.922 40.8639 57.9667 40.8343 57.9924 40.7925ZM75.6568 41.2103C75.6568 41.1298 75.5773 41.0971 75.3849 41.1002L75.1136 41.1032L75.3409 41.2073C75.6386 41.344 75.6568 41.3448 75.6568 41.2103ZM82.7273 12.3152C82.7273 12.2279 82.3561 12.1565 82.3083 12.234C82.2879 12.2666 82.3144 12.3107 82.3667 12.3319C82.525 12.3958 82.7273 12.3866 82.7273 12.3152ZM61.0227 19.1429C61.0485 19.1846 61.1545 19.2188 61.2591 19.2188C61.3659 19.2188 61.428 19.1854 61.4015 19.1429C61.3758 19.1011 61.2697 19.0669 61.1652 19.0669C61.0583 19.0669 60.9962 19.1003 61.0227 19.1429ZM60.8333 18.9909C60.8333 18.9491 60.7826 18.915 60.7197 18.915C60.6568 18.915 60.6061 18.9491 60.6061 18.9909C60.6061 19.0327 60.6568 19.0669 60.7197 19.0669C60.7826 19.0669 60.8333 19.0327 60.8333 18.9909ZM81.7803 30.8413C81.8061 30.7995 81.7743 30.7653 81.7091 30.7653C81.6439 30.7653 81.5909 30.7995 81.5909 30.8413C81.5909 30.8831 81.6227 30.9172 81.6621 30.9172C81.7015 30.9172 81.7546 30.8831 81.7803 30.8413ZM51.1364 43.907C51.1364 43.8652 51.0833 43.8311 51.0182 43.8311C50.953 43.8311 50.9212 43.8652 50.947 43.907C50.9727 43.9488 51.0258 43.983 51.0652 43.983C51.1045 43.983 51.1364 43.9488 51.1364 43.907Z" fill="var(--fill-0, black)"/>
<path id="Vector_3" d="M63.5288 2.86459L63.0856 2.84788C61.9326 2.80534 61.5545 2.82205 61.7977 2.92688C61.3068 2.77495 61.0826 2.65797 61.2917 2.65949C61.3523 2.66025 61.8788 2.71115 62.4621 2.77344C62.8121 2.81066 63.2068 2.84408 63.5288 2.86459ZM56.7417 29.6456C56.897 29.6623 57.0591 29.6638 57.1485 29.6464C57.3568 29.6053 57.3492 29.597 56.9591 29.4276C56.8992 29.4018 56.8371 29.3767 56.7765 29.3547C56.9939 29.4185 57.2508 29.4899 57.5189 29.562C57.875 29.6578 58.0023 29.7785 57.7462 29.777C57.6735 29.777 57.2758 29.7261 56.8629 29.6631C56.822 29.657 56.7811 29.6509 56.7417 29.6456ZM57.1333 7.44368C59.0227 7.59941 59.0015 7.52269 57.1591 6.98562C57.6174 7.11932 58.0773 7.25681 58.1818 7.291C58.2864 7.32594 58.5348 7.39659 58.7348 7.44824C59.3561 7.60929 59.0136 7.67917 58.178 7.56219C57.8917 7.52269 57.4917 7.47787 57.1333 7.44368ZM79.972 20.0263C79.6386 20.0012 79.2667 19.9709 78.8636 19.9359C78.4765 19.9017 78.4606 19.9071 78.6364 20.005C78.6939 20.037 78.9038 20.1114 79.1856 20.2026C78.7068 20.0605 78.3303 19.9526 78.2008 19.9238C78.1068 19.9025 78.0303 19.8546 78.0303 19.8174C78.0303 19.7316 78.0326 19.7316 78.75 19.8721C79.0273 19.9268 79.4879 19.9823 79.972 20.0263ZM72.5318 29.641C72.7129 29.6699 72.8492 29.6805 72.8689 29.6608C72.9394 29.5909 72.7288 29.4922 72.0455 29.2757C71.203 29.0083 70.597 28.807 70.1553 28.6436C70.2258 28.6679 70.3008 28.6945 70.3811 28.7219C71.3288 29.0462 72.3417 29.3653 73.0682 29.5681C73.4091 29.6631 73.5841 29.7778 73.3879 29.7778C73.2886 29.7778 72.9061 29.714 72.5318 29.641ZM56.7083 5.27796C56.2674 5.23086 55.9515 5.20503 55.7212 5.20883C55.9379 5.20503 56.2303 5.22706 56.6295 5.2696C57.1712 5.32658 57.6402 5.34937 57.6727 5.3205C57.7053 5.29087 57.597 5.20579 57.4311 5.13059C57.3015 5.0721 57.1939 5.01057 57.1068 4.94448C57.272 5.05235 57.5152 5.14198 57.8621 5.23694C58.0508 5.28783 58.1659 5.35772 58.1379 5.40406C58.1106 5.44736 58.0159 5.46255 57.9273 5.43748C57.8379 5.41317 57.2894 5.34101 56.7083 5.27796ZM81.575 22.5764C81.5394 22.5711 81.5068 22.5665 81.4773 22.5612C80.5242 22.4101 80.1515 22.3857 80.1515 22.4746C80.1515 22.486 80.1545 22.4967 80.1606 22.5065C80.122 22.4951 80.0871 22.4845 80.0568 22.4761C79.8591 22.4215 79.697 22.3493 79.697 22.3166C79.697 22.2315 79.7901 22.2407 80.6401 22.404C81.0114 22.4754 81.3167 22.5324 81.575 22.5764ZM60.4333 14.522C60.2409 14.4817 60.078 14.4445 59.9977 14.421C59.8508 14.3784 59.6288 14.3571 59.5053 14.3739C59.3485 14.3951 59.2992 14.4096 59.4568 14.4688C58.8265 14.2766 58.7879 14.2538 58.7879 14.2257C58.7879 14.1581 59.5985 14.2743 59.9053 14.3852C59.9992 14.4194 60.2008 14.4711 60.4333 14.522ZM52.6932 44.2648C52.0417 44.1311 51.7947 44.1114 51.8439 44.1911C51.8523 44.2056 51.8848 44.2261 51.9326 44.2504C51.8106 44.2086 51.6992 44.1752 51.6091 44.1554C51.5144 44.1342 51.4189 44.0863 51.3962 44.0498C51.3265 43.9374 51.7 43.9746 52.2076 44.1311C52.3462 44.1729 52.5098 44.2185 52.6932 44.2648ZM74.2955 18.128C74.7091 18.153 74.5568 18.008 73.8545 17.7725C73.5955 17.6859 73.3773 17.5985 73.1985 17.5089C73.6424 17.7117 74.3977 17.973 74.7924 18.0452C74.9492 18.0733 75.0962 18.1272 75.1189 18.1637C75.1227 18.1698 75.1258 18.1751 75.1288 18.1796C75.1386 18.1941 75.1462 18.2047 75.1432 18.2123C75.1341 18.2381 75.0015 18.2207 74.4038 18.1417L74.2955 18.128ZM64.8576 30.1401C64.6538 30.1196 64.4727 30.0983 64.3561 30.0816C63.0523 29.8887 62.8038 29.9008 63.5667 30.1667C63.1462 30.033 62.7992 29.9305 62.7462 29.9297C62.6939 29.9297 62.6515 29.8917 62.6515 29.8446C62.6515 29.7907 62.7265 29.7785 62.8598 29.812C63.375 29.9388 64.1258 30.0604 64.8576 30.1401ZM85.4167 29.7755C85.5977 29.8256 85.8977 29.8894 86.2349 29.9533C86.0053 29.9115 85.7682 29.8667 85.5303 29.8196C85.2773 29.7694 85.272 29.7725 85.4167 29.8894C85.4667 29.9305 85.5424 29.9738 85.6174 30.0079C85.5341 29.9806 85.4485 29.9525 85.3598 29.9251C85.0371 29.8249 84.7727 29.7124 84.7727 29.6752C84.7727 29.6076 84.8621 29.6213 85.4167 29.7755ZM77.2712 36.9761C76.6023 36.8925 75.9144 36.7923 75.6174 36.7247C75.5008 36.6981 75.45 36.7148 75.4697 36.7733C75.4856 36.8227 75.7879 36.9639 76.1402 37.0878C76.6038 37.2503 76.9152 37.425 77.075 37.6142C76.8977 37.4167 76.5402 37.2306 75.9848 37.0354C75.8985 37.005 75.8189 36.9776 75.7462 36.9518C75.1394 36.7391 74.9939 36.689 74.9985 36.6639C75.0008 36.6533 75.0303 36.6472 75.0629 36.635C75.1182 36.6145 75.3053 36.6358 75.4795 36.6821C75.7795 36.7619 76.5417 36.8811 77.2712 36.9761ZM72.6636 19.8356C72.1318 19.7506 71.4955 19.6807 71.2098 19.6754C71.4962 19.6807 72.147 19.7483 72.6947 19.8303C73.8667 20.005 74.1659 20.0005 73.6326 19.8121C73.8356 19.8683 73.9992 19.9025 74.0871 19.9025C74.1727 19.9025 74.2424 19.9405 74.2424 19.9868C74.2424 20.081 74.15 20.0719 72.6636 19.8356ZM50.0962 45.5C50.05 45.4901 50.0053 45.4802 49.9621 45.4704C49.3371 45.3291 49.3182 45.3276 49.3182 45.4263C49.3182 45.4369 49.3212 45.4468 49.3258 45.4559C49.2886 45.4438 49.2508 45.4316 49.2121 45.4202C49.0205 45.364 48.8636 45.2903 48.8636 45.2577C48.8636 45.1718 49.1515 45.1847 49.3273 45.2789C49.4189 45.3283 49.7015 45.4088 50.0962 45.5ZM86.4773 17.9654C85.7167 17.8553 85.5553 17.8386 85.5432 17.8727C85.5402 17.8826 85.5485 17.8955 85.5591 17.9122L85.5614 17.916C85.572 17.9335 85.5879 17.9502 85.6053 17.9639C85.5992 17.9624 85.5924 17.9609 85.5864 17.9593C85.4826 17.935 85.3811 17.8902 85.3455 17.8545C85.3409 17.8424 85.3364 17.8287 85.3303 17.8143C85.3538 17.7542 85.6242 17.7694 85.9098 17.8538C85.9909 17.8781 86.2061 17.9198 86.4773 17.9654ZM61.0227 19.1429C60.9962 19.1003 61.0583 19.0669 61.1652 19.0669C61.2697 19.0669 61.3758 19.1011 61.4015 19.1429C61.428 19.1854 61.3659 19.2188 61.2591 19.2188C61.1545 19.2188 61.0485 19.1846 61.0227 19.1429ZM74.2977 26.0031C74.3348 26.0031 74.3652 25.9978 74.3826 25.9872C74.4205 25.9636 74.3992 25.9302 74.3152 25.8869C74.3599 25.8976 74.4144 25.9036 74.4697 25.9036C74.5902 25.9036 74.7114 25.9416 74.7402 25.9887C74.7833 26.0578 74.6326 26.0624 74.2977 26.0031ZM70.0576 25.2276C70.1205 25.2222 70.1886 25.22 70.2614 25.22C70.5455 25.22 70.9015 25.2511 71.0515 25.2891C71.1 25.3012 71.1636 25.3164 71.2341 25.3331C71.0152 25.299 70.6742 25.2625 70.3924 25.2443C70.2545 25.2351 70.1455 25.2291 70.0576 25.2276ZM64.1182 2.88662C64.5136 2.88358 64.5871 2.85548 64.7712 2.6724L64.5417 2.90181L64.1182 2.88662ZM73 16.2859C72.5795 16.4621 72.4765 16.8472 72.7167 17.167C72.553 16.9779 72.5371 16.7751 72.6576 16.5487C72.7356 16.4021 72.875 16.3049 73.0765 16.257C73.0515 16.2654 73.0265 16.2752 73 16.2859ZM71.4606 18.9438C71.5742 19.057 72.0977 19.2849 72.6545 19.4908C71.9773 19.2568 71.6 19.0828 71.4606 18.9438ZM54.8432 44.7153C55.7061 44.868 56.4606 44.969 56.6447 44.9348C56.4371 44.9736 55.7818 44.8915 54.8432 44.7153ZM56.4447 29.2544C56.4258 29.2513 56.4098 29.2491 56.3977 29.2491C56.3121 29.2476 56.2098 29.2172 56.1705 29.1822C56.147 29.161 56.0583 29.1215 55.9417 29.0782C56.0447 29.1131 56.1311 29.1442 56.1742 29.1625C56.225 29.1837 56.3189 29.2149 56.4447 29.2544ZM74.2129 25.8406C74.1129 25.7996 73.972 25.7517 73.7879 25.6947L73.7447 25.6818C73.8364 25.7061 73.9098 25.7244 73.9591 25.7327C74.0742 25.7525 74.1871 25.7996 74.2098 25.8368C74.2106 25.8375 74.2121 25.8391 74.2129 25.8406ZM73.6742 25.871C73.3841 25.8018 72.925 25.6978 72.4689 25.5967C73.1765 25.7479 73.8182 25.893 74.0417 25.953C73.9318 25.9302 73.8091 25.9029 73.6742 25.871ZM73.928 18.0839C73.4606 18.0345 72.8591 17.9935 72.4598 17.9859C72.4742 17.9867 72.4886 17.9867 72.5038 17.9867C73.0152 17.9966 73.6508 18.0391 73.9167 18.0816L73.928 18.0839ZM55.7371 29.5491C56.0083 29.5453 56.3136 29.5689 56.5909 29.6228C56.6008 29.6251 56.6114 29.6266 56.622 29.6289C56.2674 29.5803 55.9758 29.5529 55.7371 29.5491ZM80.222 20.5148C80.8538 20.7001 81.4061 20.8726 81.8659 21.0283C81.4341 20.8885 80.8235 20.6986 80.222 20.5148ZM80.4167 22.5878C80.5462 22.622 80.7432 22.6873 80.9364 22.7618C81.1902 22.859 81.3265 22.919 81.4144 22.9957C81.3273 22.9205 81.1917 22.8628 80.9386 22.7694C80.7803 22.7109 80.5894 22.6448 80.4167 22.5878ZM85.8303 18.0224C86.1212 18.0885 86.7758 18.3103 87.3159 18.5154C86.8394 18.3369 86.2538 18.1401 85.8303 18.0224ZM69.3977 25.7054C69.4144 25.5405 69.4841 25.422 69.6152 25.343C69.603 25.3537 69.5909 25.365 69.578 25.3772C69.4758 25.4737 69.4159 25.5876 69.3977 25.7054ZM63.9848 16.7166C63.9053 16.9855 63.678 17.1678 63.3939 17.1678C63.6788 17.1678 63.8977 16.9642 63.9848 16.7166ZM52.3523 44.4114C52.5583 44.4828 52.8227 44.612 52.9864 44.7206C52.8371 44.6294 52.6 44.5147 52.3523 44.4114ZM83.3652 22.5225C83.2288 22.6706 83.1818 22.7147 82.9462 22.7094C83.153 22.698 83.2424 22.6531 83.3652 22.5225ZM69.8561 26.4065C69.5439 26.2272 69.4144 26.054 69.3962 25.8429C69.4129 25.9766 69.4818 26.108 69.6023 26.2189C69.6735 26.285 69.7553 26.3465 69.8561 26.4065ZM55.772 30.9659C56.2303 31.1277 56.9864 31.3768 57.9341 31.6784C56.8598 31.3366 56.197 31.1208 55.772 30.9659ZM85.7962 30.0702C85.9735 30.1196 86.2152 30.2199 86.4288 30.3262C86.253 30.2427 86.0394 30.1561 85.7962 30.0702ZM55.053 30.624C55.0182 30.5959 54.9894 30.567 54.9621 30.5374C54.8492 30.4128 54.803 30.2267 54.8197 30.0543C54.8189 30.071 54.8182 30.0885 54.8182 30.1059C54.8182 30.3133 54.8962 30.4858 55.053 30.624ZM63.1455 15.669C63.1697 15.6789 63.1947 15.6888 63.2197 15.6994C63.4591 15.7982 63.6318 15.8855 63.7545 15.9767C63.6258 15.8893 63.4159 15.7845 63.1455 15.669ZM62.4061 3.11071C62.8106 3.22922 63.2697 3.37659 63.6508 3.508C63.3235 3.3971 62.9053 3.2634 62.4061 3.11071ZM56.6189 7.40115C56.1561 7.37076 55.9697 7.36468 55.8417 7.40874C55.9606 7.36088 56.1326 7.36316 56.6189 7.40115ZM65.3424 30.8177C65.4629 30.8982 65.5227 30.9818 65.578 31.0965C65.5311 31 65.4402 30.8944 65.3424 30.8177ZM64.3409 30.4204C64.6462 30.5192 64.8697 30.5959 65.0371 30.6643C64.8689 30.6005 64.6174 30.5131 64.3409 30.4204ZM49.4932 45.5137C49.5924 45.538 49.7318 45.6003 49.8667 45.6762C49.7576 45.6192 49.6318 45.5646 49.4932 45.5137ZM83.1917 21.5517C83.2902 21.6048 83.3568 21.6512 83.3902 21.6892C83.4061 21.7074 83.4205 21.7256 83.4341 21.7446C83.3765 21.6785 83.2977 21.6155 83.1917 21.5517ZM71.0144 24.4899C71.0326 24.534 71.0538 24.5735 71.0803 24.61C71.0409 24.5629 71.0151 24.5143 70.997 24.4634C70.9659 24.3737 70.953 24.2848 70.9561 24.2005C70.9545 24.2932 70.9735 24.392 71.0144 24.4899ZM71.9303 29.5127C71.8644 29.4967 71.8098 29.4823 71.772 29.4701C71.6417 29.4291 71.1614 29.3744 70.7038 29.3478C71.1614 29.3744 71.6417 29.4283 71.772 29.4678C71.8212 29.483 71.875 29.4982 71.9303 29.5127ZM61.9697 14.816C62.1242 14.8471 62.2667 14.8737 62.3985 14.8957C62.2667 14.8737 62.1242 14.8471 61.9697 14.8167C61.828 14.7886 61.5318 14.7316 61.2333 14.6762C61.5371 14.7324 61.8318 14.7879 61.9697 14.816ZM61.9076 15.2117C62.1902 15.3037 62.4174 15.3834 62.6455 15.47C62.4205 15.3857 62.1727 15.2991 61.9076 15.2117ZM54.9477 29.736C54.9621 29.72 54.9773 29.7056 54.9932 29.6919C55.0189 29.6707 55.0553 29.6517 55.1 29.6357C55.0386 29.6623 54.9879 29.6957 54.9477 29.736ZM55.4273 8.0324C55.4311 8.11672 55.453 8.20104 55.4932 8.28081C55.4515 8.20104 55.4303 8.11672 55.4273 8.0324ZM66.2341 30.2252C66.3697 30.2123 66.425 30.172 66.5045 30.0923C66.4242 30.1728 66.3712 30.2123 66.2341 30.2252ZM83.5152 22.29C83.4955 22.3394 83.4689 22.3888 83.4356 22.4366C83.4674 22.3903 83.4947 22.3402 83.5152 22.29Z" fill="var(--fill-0, black)"/>
<g id="Vector_4">
</g>
</g>
</svg>
